<svg width="111" height="66" viewBox="0 0 111 66" fill="none" xmlns="http://www.w3.org/2000/svg">
<path d="M33.8701 55.48H36.1301C36.9167 55.48 37.6101 55.3667 38.2101 55.14C38.8101 54.9 39.2767 54.5533 39.6101 54.1C39.9567 53.6333 40.1301 53.06 40.1301 52.38C40.1301 51.6333 39.9634 51.0133 39.6301 50.52C39.2967 50.0133 38.8234 49.6333 38.2101 49.38C37.6101 49.1267 36.8901 49 36.0501 49H33.0101V63H36.2501C37.1567 63 37.9567 62.8533 38.6501 62.56C39.3567 62.2667 39.9101 61.82 40.3101 61.22C40.7101 60.62 40.9101 59.86 40.9101 58.94C40.9101 58.3 40.7767 57.7467 40.5101 57.28C40.2567 56.8 39.9101 56.4067 39.4701 56.1C39.0434 55.7933 38.5567 55.5667 38.0101 55.42C37.4634 55.26 36.9034 55.18 36.3301 55.18H33.8701V55.82H36.2501C36.7301 55.82 37.1767 55.8867 37.5901 56.02C38.0167 56.1533 38.3967 56.3533 38.7301 56.62C39.0634 56.8733 39.3234 57.1933 39.5101 57.58C39.6967 57.9533 39.7901 58.3867 39.7901 58.88C39.7901 59.5733 39.6434 60.1533 39.3501 60.62C39.0567 61.0733 38.6434 61.42 38.1101 61.66C37.5767 61.9 36.9567 62.02 36.2501 62.02H34.1101V49.98H36.0501C36.9567 49.98 37.6767 50.2 38.2101 50.64C38.7567 51.0667 39.0301 51.6667 39.0301 52.44C39.0301 52.9867 38.8967 53.44 38.6301 53.8C38.3634 54.1467 38.0034 54.4067 37.5501 54.58C37.0967 54.7533 36.5967 54.84 36.0501 54.84H33.8701V55.48ZM43.2624 58.4C43.2624 59.32 43.4691 60.1467 43.8824 60.88C44.2958 61.6 44.8558 62.1667 45.5624 62.58C46.2824 62.9933 47.0891 63.2 47.9824 63.2C48.8758 63.2 49.6758 62.9933 50.3824 62.58C51.1024 62.1667 51.6691 61.6 52.0824 60.88C52.4958 60.1467 52.7024 59.32 52.7024 58.4C52.7024 57.4667 52.4958 56.64 52.0824 55.92C51.6691 55.2 51.1024 54.6333 50.3824 54.22C49.6758 53.8067 48.8758 53.6 47.9824 53.6C47.0891 53.6 46.2824 53.8067 45.5624 54.22C44.8558 54.6333 44.2958 55.2 43.8824 55.92C43.4691 56.64 43.2624 57.4667 43.2624 58.4ZM44.3224 58.4C44.3224 57.6533 44.4824 56.9933 44.8024 56.42C45.1224 55.8467 45.5558 55.4 46.1024 55.08C46.6624 54.7467 47.2891 54.58 47.9824 54.58C48.6758 54.58 49.2958 54.7467 49.8424 55.08C50.4024 55.4 50.8424 55.8533 51.1624 56.44C51.4824 57.0133 51.6424 57.6667 51.6424 58.4C51.6424 59.1467 51.4824 59.8067 51.1624 60.38C50.8424 60.9533 50.4024 61.4067 49.8424 61.74C49.2958 62.06 48.6758 62.22 47.9824 62.22C47.2891 62.22 46.6624 62.06 46.1024 61.74C45.5558 61.4067 45.1224 60.9533 44.8024 60.38C44.4824 59.8067 44.3224 59.1467 44.3224 58.4ZM62.0404 54.7L62.1404 53.1L55.1004 62.1L55.0004 63.7L62.0404 54.7ZM56.0404 53.8H55.0004V63.7L56.0404 62.22V53.8ZM62.1404 53.1L61.1004 54.58V63H62.1404V53.1ZM55.4204 49.1C55.4204 49.5533 55.5337 50 55.7604 50.44C56.0004 50.8667 56.3537 51.22 56.8204 51.5C57.3004 51.7667 57.8871 51.9 58.5804 51.9C59.2871 51.9 59.8737 51.7667 60.3404 51.5C60.8071 51.22 61.1537 50.8667 61.3804 50.44C61.6204 50 61.7404 49.5533 61.7404 49.1H60.8004C60.8004 49.38 60.7271 49.6733 60.5804 49.98C60.4337 50.2733 60.1937 50.5267 59.8604 50.74C59.5271 50.94 59.1004 51.04 58.5804 51.04C58.0604 51.04 57.6337 50.94 57.3004 50.74C56.9671 50.5267 56.7271 50.2733 56.5804 49.98C56.4337 49.6733 56.3604 49.38 56.3604 49.1H55.4204ZM63.8324 53.8V54.78H69.2324V53.8H63.8324ZM66.0124 54.08V63H67.0524V54.08H66.0124ZM77.9779 54.7L78.0779 53.1L71.0379 62.1L70.9379 63.7L77.9779 54.7ZM71.9779 53.8H70.9379V63.7L71.9779 62.22V53.8ZM78.0779 53.1L77.0379 54.58V63H78.0779V53.1Z" fill="black"/>
<g clip-path="url(#clip0_35_80)">
<path d="M56 38.5C65.1127 38.5 72.5 31.1127 72.5 22C72.5 12.8873 65.1127 5.5 56 5.5C46.8873 5.5 39.5 12.8873 39.5 22C39.5 31.1127 46.8873 38.5 56 38.5Z" stroke="black" stroke-width="2" stroke-linecap="round" stroke-linejoin="round"/>
<path d="M56 23.8333C59.0376 23.8333 61.5 21.3709 61.5 18.3333C61.5 15.2958 59.0376 12.8333 56 12.8333C52.9624 12.8333 50.5 15.2958 50.5 18.3333C50.5 21.3709 52.9624 23.8333 56 23.8333Z" stroke="black" stroke-width="2" stroke-linecap="round" stroke-linejoin="round"/>
<path d="M45.308 34.5565C45.7617 33.0463 46.6903 31.7225 47.9558 30.7816C49.2213 29.8407 50.7564 29.3329 52.3333 29.3333H59.6666C61.2456 29.3328 62.7826 29.8419 64.049 30.7849C65.3154 31.728 66.2437 33.0546 66.6956 34.5675" stroke="black" stroke-width="2" stroke-linecap="round" stroke-linejoin="round"/>
</g>
<defs>
<clipPath id="clip0_35_80">
<rect width="44" height="44" fill="white" transform="translate(34)"/>
</clipPath>
</defs>
</svg>
