<svg width="112" height="71" viewBox="0 0 112 71" fill="none" xmlns="http://www.w3.org/2000/svg">
<path d="M24.768 49V63H25.868V50.04H31.668V49H24.768ZM39.2578 53.8H31.9178V59.8C31.9178 60.5733 31.7711 61.14 31.4778 61.5C31.1978 61.86 30.8578 62.04 30.4578 62.04V63C30.9911 63 31.4445 62.8867 31.8178 62.66C32.1911 62.42 32.4711 62.0667 32.6578 61.6C32.8578 61.12 32.9578 60.52 32.9578 59.8V54.78H38.2178V63H39.2578V53.8ZM42.6033 60.3C42.6033 59.8333 42.7233 59.44 42.9633 59.12C43.2033 58.8 43.5299 58.56 43.9433 58.4C44.3699 58.2267 44.8499 58.14 45.3833 58.14C46.0099 58.14 46.5499 58.2267 47.0033 58.4C47.4699 58.56 47.8899 58.78 48.2633 59.06V58.42C48.1566 58.3 47.9766 58.1533 47.7233 57.98C47.4833 57.8067 47.1633 57.6533 46.7633 57.52C46.3766 57.3867 45.9033 57.32 45.3433 57.32C44.6233 57.32 43.9766 57.44 43.4033 57.68C42.8299 57.9067 42.3766 58.2467 42.0433 58.7C41.7099 59.14 41.5433 59.6867 41.5433 60.34C41.5433 60.9933 41.6899 61.5333 41.9833 61.96C42.2766 62.3733 42.6566 62.6867 43.1233 62.9C43.6033 63.1 44.1166 63.2 44.6633 63.2C45.3166 63.2 45.8966 63.0733 46.4033 62.82C46.9233 62.5533 47.3299 62.1933 47.6233 61.74C47.9299 61.2733 48.0833 60.7467 48.0833 60.16L47.8433 59.56C47.8433 60.1333 47.7166 60.62 47.4633 61.02C47.2099 61.42 46.8566 61.7267 46.4033 61.94C45.9633 62.1533 45.4633 62.26 44.9033 62.26C44.5033 62.26 44.1233 62.1933 43.7633 62.06C43.4166 61.9133 43.1366 61.7 42.9233 61.42C42.7099 61.1267 42.6033 60.7533 42.6033 60.3ZM42.8633 55.62C43.0499 55.46 43.2766 55.2933 43.5433 55.12C43.8233 54.9467 44.1433 54.8067 44.5033 54.7C44.8633 54.58 45.2633 54.52 45.7033 54.52C46.3433 54.52 46.8566 54.6933 47.2433 55.04C47.6433 55.3733 47.8433 55.8533 47.8433 56.48V63H48.8833V56.48C48.8833 55.88 48.7566 55.3667 48.5033 54.94C48.2499 54.5133 47.8833 54.1867 47.4033 53.96C46.9366 53.72 46.3699 53.6 45.7033 53.6C44.9166 53.6 44.2433 53.7333 43.6833 54C43.1366 54.2667 42.6899 54.54 42.3433 54.82L42.8633 55.62ZM52.6703 58.28V58.82H55.3303C55.637 58.82 55.9303 58.8467 56.2103 58.9C56.4903 58.9533 56.737 59.04 56.9503 59.16C57.1636 59.28 57.3303 59.44 57.4503 59.64C57.5836 59.8267 57.6503 60.0733 57.6503 60.38C57.6503 60.8467 57.477 61.2467 57.1303 61.58C56.797 61.9133 56.2503 62.08 55.4903 62.08H52.6703V63H55.7303C56.7836 63 57.537 62.76 57.9903 62.28C58.457 61.7867 58.6903 61.1933 58.6903 60.5C58.6903 59.9 58.5436 59.44 58.2503 59.12C57.957 58.8 57.557 58.58 57.0503 58.46C56.5436 58.34 55.9703 58.28 55.3303 58.28H52.6703ZM52.6703 58.52H55.1303C55.7036 58.52 56.2236 58.4467 56.6903 58.3C57.1703 58.14 57.557 57.9 57.8503 57.58C58.1436 57.2467 58.2903 56.82 58.2903 56.3C58.2903 55.7 58.1436 55.22 57.8503 54.86C57.557 54.4867 57.1703 54.22 56.6903 54.06C56.2236 53.8867 55.7036 53.8 55.1303 53.8H52.6703V54.72H55.1303C55.757 54.72 56.2636 54.86 56.6503 55.14C57.0503 55.42 57.2503 55.8267 57.2503 56.36C57.2503 56.64 57.1836 56.88 57.0503 57.08C56.9303 57.2667 56.7636 57.4267 56.5503 57.56C56.3503 57.6933 56.1236 57.7867 55.8703 57.84C55.617 57.8933 55.3703 57.92 55.1303 57.92H52.6703V58.52ZM52.0703 53.8V63H53.1103V53.8H52.0703ZM61.4013 58.62H68.1213V57.64H61.4013V58.62ZM67.4813 53.8V63H68.5213V53.8H67.4813ZM60.7813 53.8V63H61.8213V53.8H60.7813ZM71.7634 60.3C71.7634 59.8333 71.8834 59.44 72.1234 59.12C72.3634 58.8 72.6901 58.56 73.1034 58.4C73.5301 58.2267 74.0101 58.14 74.5434 58.14C75.1701 58.14 75.7101 58.2267 76.1634 58.4C76.6301 58.56 77.0501 58.78 77.4234 59.06V58.42C77.3168 58.3 77.1368 58.1533 76.8834 57.98C76.6434 57.8067 76.3234 57.6533 75.9234 57.52C75.5368 57.3867 75.0634 57.32 74.5034 57.32C73.7834 57.32 73.1368 57.44 72.5634 57.68C71.9901 57.9067 71.5368 58.2467 71.2034 58.7C70.8701 59.14 70.7034 59.6867 70.7034 60.34C70.7034 60.9933 70.8501 61.5333 71.1434 61.96C71.4368 62.3733 71.8168 62.6867 72.2834 62.9C72.7634 63.1 73.2768 63.2 73.8234 63.2C74.4768 63.2 75.0568 63.0733 75.5634 62.82C76.0834 62.5533 76.4901 62.1933 76.7834 61.74C77.0901 61.2733 77.2434 60.7467 77.2434 60.16L77.0034 59.56C77.0034 60.1333 76.8768 60.62 76.6234 61.02C76.3701 61.42 76.0168 61.7267 75.5634 61.94C75.1234 62.1533 74.6234 62.26 74.0634 62.26C73.6634 62.26 73.2834 62.1933 72.9234 62.06C72.5768 61.9133 72.2968 61.7 72.0834 61.42C71.8701 61.1267 71.7634 60.7533 71.7634 60.3ZM72.0234 55.62C72.2101 55.46 72.4368 55.2933 72.7034 55.12C72.9834 54.9467 73.3034 54.8067 73.6634 54.7C74.0234 54.58 74.4234 54.52 74.8634 54.52C75.5034 54.52 76.0168 54.6933 76.4034 55.04C76.8034 55.3733 77.0034 55.8533 77.0034 56.48V63H78.0434V56.48C78.0434 55.88 77.9168 55.3667 77.6634 54.94C77.4101 54.5133 77.0434 54.1867 76.5634 53.96C76.0968 53.72 75.5301 53.6 74.8634 53.6C74.0768 53.6 73.4034 53.7333 72.8434 54C72.2968 54.2667 71.8501 54.54 71.5034 54.82L72.0234 55.62ZM81.9505 63L85.1505 58.58H83.9905L80.7905 63H81.9505ZM87.8305 63V53.8H86.7905V63H87.8305ZM87.2105 58.4H84.5905C84.1238 58.4 83.7171 58.34 83.3705 58.22C83.0238 58.0867 82.7505 57.8867 82.5505 57.62C82.3638 57.34 82.2705 56.9867 82.2705 56.56C82.2705 56.12 82.3638 55.7667 82.5505 55.5C82.7505 55.2333 83.0238 55.04 83.3705 54.92C83.7171 54.7867 84.1238 54.72 84.5905 54.72H87.2105V53.8H84.5905C83.9638 53.8 83.3905 53.8933 82.8705 54.08C82.3638 54.2667 81.9638 54.56 81.6705 54.96C81.3771 55.36 81.2305 55.8933 81.2305 56.56C81.2305 57.2133 81.3771 57.7467 81.6705 58.16C81.9638 58.56 82.3638 58.8533 82.8705 59.04C83.3905 59.2267 83.9638 59.32 84.5905 59.32H87.2105V58.4Z" fill="black"/>
<g clip-path="url(#clip0_35_100)">
<path d="M43.1667 22H39.5L56 5.5L72.5 22H68.8333" stroke="black" stroke-width="2" stroke-linecap="round" stroke-linejoin="round"/>
<path d="M43.1667 22V34.8333C43.1667 35.8058 43.553 36.7384 44.2406 37.4261C44.9283 38.1137 45.8609 38.5 46.8334 38.5H65.1667C66.1391 38.5 67.0718 38.1137 67.7594 37.4261C68.447 36.7384 68.8334 35.8058 68.8334 34.8333V22" stroke="black" stroke-width="2" stroke-linecap="round" stroke-linejoin="round"/>
<path d="M59.6666 22H52.3333V29.3333H59.6666V22Z" stroke="black" stroke-width="2" stroke-linecap="round" stroke-linejoin="round"/>
</g>
<defs>
<clipPath id="clip0_35_100">
<rect width="44" height="44" fill="white" transform="translate(34)"/>
</clipPath>
</defs>
</svg>
