<svg width="111" height="68" viewBox="0 0 111 68" fill="none" xmlns="http://www.w3.org/2000/svg">
<path d="M19.2213 50L19.2813 48.3L7.60133 62L7.54133 63.7L19.2213 50ZM8.64133 49H7.54133V63.7L8.64133 62.2V49ZM19.2813 48.3L18.1813 49.78V63H19.2813V48.3ZM25.839 58.3C26.8923 58.3 27.699 58.0867 28.259 57.66C28.8323 57.2334 29.119 56.6867 29.119 56.02C29.119 55.5534 28.979 55.14 28.699 54.78C28.4323 54.42 28.0657 54.1334 27.599 53.92C27.1323 53.7067 26.6057 53.6 26.019 53.6C25.3923 53.6 24.819 53.7267 24.299 53.98C23.7923 54.2334 23.3857 54.5734 23.079 55C22.7857 55.4267 22.639 55.8934 22.639 56.4H23.699C23.699 56.1067 23.7857 55.82 23.959 55.54C24.1457 55.2467 24.4123 55.0067 24.759 54.82C25.1057 54.6334 25.519 54.54 25.999 54.54C26.6123 54.54 27.1057 54.68 27.479 54.96C27.8657 55.24 28.059 55.62 28.059 56.1C28.059 56.5534 27.8723 56.9267 27.499 57.22C27.1257 57.5 26.5723 57.64 25.839 57.64V58.3ZM25.959 63.2C26.5857 63.2 27.1723 63.0934 27.719 62.88C28.2657 62.6534 28.699 62.3267 29.019 61.9C29.3523 61.4734 29.519 60.96 29.519 60.36C29.519 59.5334 29.1923 58.92 28.539 58.52C27.899 58.1067 26.999 57.9 25.839 57.9V58.56C26.359 58.56 26.819 58.6267 27.219 58.76C27.619 58.8934 27.9323 59.0934 28.159 59.36C28.3857 59.6267 28.499 59.9667 28.499 60.38C28.499 60.7934 28.379 61.14 28.139 61.42C27.9123 61.7 27.6057 61.9134 27.219 62.06C26.8457 62.2067 26.4257 62.28 25.959 62.28C25.119 62.28 24.479 62.0667 24.039 61.64C23.599 61.2 23.3323 60.6867 23.239 60.1H22.179C22.2857 60.9934 22.6723 61.7334 23.339 62.32C24.0057 62.9067 24.879 63.2 25.959 63.2ZM35.8721 54.58C36.5788 54.58 37.2054 54.74 37.7521 55.06C38.3121 55.38 38.7521 55.8334 39.0721 56.42C39.4054 56.9934 39.5721 57.6534 39.5721 58.4C39.5721 59.1467 39.4054 59.8067 39.0721 60.38C38.7388 60.9534 38.2921 61.4067 37.7321 61.74C37.1721 62.06 36.5521 62.22 35.8721 62.22C35.1921 62.22 34.5788 62.06 34.0321 61.74C33.4854 61.4067 33.0454 60.9534 32.7121 60.38C32.3921 59.8067 32.2321 59.1467 32.2321 58.4L31.1121 57.2C31.1121 58.52 31.3188 59.6267 31.7321 60.52C32.1588 61.4134 32.7321 62.0867 33.4521 62.54C34.1721 62.98 34.9788 63.2 35.8721 63.2C36.7788 63.2 37.5854 62.9934 38.2921 62.58C39.0121 62.1667 39.5788 61.6 39.9921 60.88C40.4188 60.1467 40.6321 59.32 40.6321 58.4C40.6321 57.4667 40.4188 56.64 39.9921 55.92C39.5788 55.2 39.0121 54.6334 38.2921 54.22C37.5854 53.8067 36.7788 53.6 35.8721 53.6V54.58ZM31.7121 58.4H32.2321C32.2321 57.7867 32.3388 57.2467 32.5521 56.78C32.7788 56.3 33.0721 55.9 33.4321 55.58C33.7921 55.26 34.1854 55.0134 34.6121 54.84C35.0521 54.6667 35.4721 54.58 35.8721 54.58V53.6C35.3121 53.6 34.7788 53.7134 34.2721 53.94C33.7788 54.1534 33.3388 54.4667 32.9521 54.88C32.5654 55.2934 32.2588 55.8 32.0321 56.4C31.8188 56.9867 31.7121 57.6534 31.7121 58.4ZM31.1121 57.2L32.0321 58.32V56.68C32.0321 55.7334 32.1321 54.8667 32.3321 54.08C32.5454 53.2934 32.9054 52.6134 33.4121 52.04C33.9321 51.4667 34.6388 51.0334 35.5321 50.74C36.2254 50.5 36.8254 50.22 37.3321 49.9C37.8521 49.5667 38.2654 49.1934 38.5721 48.78C38.8788 48.3534 39.0588 47.8934 39.1121 47.4H38.0921C37.9988 47.88 37.7321 48.34 37.2921 48.78C36.8521 49.2067 36.1788 49.5734 35.2721 49.88C34.2054 50.24 33.3654 50.76 32.7521 51.44C32.1388 52.1067 31.7121 52.92 31.4721 53.88C31.2321 54.84 31.1121 55.9467 31.1121 57.2ZM43.8501 67.4V53.8H42.8101V67.4H43.8501ZM51.7101 58.4C51.7101 57.4 51.5101 56.5467 51.1101 55.84C50.7234 55.12 50.1901 54.5667 49.5101 54.18C48.8434 53.7934 48.0967 53.6 47.2701 53.6C46.4967 53.6 45.8167 53.8134 45.2301 54.24C44.6434 54.6534 44.1834 55.22 43.8501 55.94C43.5301 56.66 43.3701 57.48 43.3701 58.4C43.3701 59.3067 43.5301 60.1267 43.8501 60.86C44.1834 61.58 44.6434 62.1534 45.2301 62.58C45.8167 62.9934 46.4967 63.2 47.2701 63.2C48.0967 63.2 48.8434 63.0067 49.5101 62.62C50.1901 62.2334 50.7234 61.68 51.1101 60.96C51.5101 60.24 51.7101 59.3867 51.7101 58.4ZM50.6701 58.4C50.6701 59.2 50.5101 59.8867 50.1901 60.46C49.8701 61.0334 49.4434 61.4734 48.9101 61.78C48.3767 62.0734 47.7834 62.22 47.1301 62.22C46.5701 62.22 46.0367 62.0534 45.5301 61.72C45.0234 61.3867 44.6167 60.9334 44.3101 60.36C44.0034 59.7867 43.8501 59.1334 43.8501 58.4C43.8501 57.6667 44.0034 57.0134 44.3101 56.44C44.6167 55.8667 45.0234 55.4134 45.5301 55.08C46.0367 54.7467 46.5701 54.58 47.1301 54.58C47.7834 54.58 48.3767 54.7334 48.9101 55.04C49.4434 55.3334 49.8701 55.7667 50.1901 56.34C50.5101 56.9134 50.6701 57.6 50.6701 58.4ZM54.4763 60.3C54.4763 59.8334 54.5963 59.44 54.8363 59.12C55.0763 58.8 55.403 58.56 55.8163 58.4C56.243 58.2267 56.723 58.14 57.2563 58.14C57.883 58.14 58.423 58.2267 58.8763 58.4C59.343 58.56 59.763 58.78 60.1363 59.06V58.42C60.0297 58.3 59.8497 58.1534 59.5963 57.98C59.3563 57.8067 59.0363 57.6534 58.6363 57.52C58.2497 57.3867 57.7763 57.32 57.2163 57.32C56.4963 57.32 55.8497 57.44 55.2763 57.68C54.703 57.9067 54.2497 58.2467 53.9163 58.7C53.583 59.14 53.4163 59.6867 53.4163 60.34C53.4163 60.9934 53.563 61.5334 53.8563 61.96C54.1497 62.3734 54.5297 62.6867 54.9963 62.9C55.4763 63.1 55.9897 63.2 56.5363 63.2C57.1897 63.2 57.7697 63.0734 58.2763 62.82C58.7963 62.5534 59.203 62.1934 59.4963 61.74C59.803 61.2734 59.9563 60.7467 59.9563 60.16L59.7163 59.56C59.7163 60.1334 59.5897 60.62 59.3363 61.02C59.083 61.42 58.7297 61.7267 58.2763 61.94C57.8363 62.1534 57.3363 62.26 56.7763 62.26C56.3763 62.26 55.9963 62.1934 55.6363 62.06C55.2897 61.9134 55.0097 61.7 54.7963 61.42C54.583 61.1267 54.4763 60.7534 54.4763 60.3ZM54.7363 55.62C54.923 55.46 55.1497 55.2934 55.4163 55.12C55.6963 54.9467 56.0163 54.8067 56.3763 54.7C56.7363 54.58 57.1363 54.52 57.5763 54.52C58.2163 54.52 58.7297 54.6934 59.1163 55.04C59.5163 55.3734 59.7163 55.8534 59.7163 56.48V63H60.7563V56.48C60.7563 55.88 60.6297 55.3667 60.3763 54.94C60.123 54.5134 59.7563 54.1867 59.2763 53.96C58.8097 53.72 58.243 53.6 57.5763 53.6C56.7897 53.6 56.1163 53.7334 55.5563 54C55.0097 54.2667 54.563 54.54 54.2163 54.82L54.7363 55.62ZM64.5634 58.62H71.2834V57.64H64.5634V58.62ZM70.6434 53.8V63H71.6834V53.8H70.6434ZM63.9434 53.8V63H64.9834V53.8H63.9434ZM75.3055 58.62H82.0255V57.64H75.3055V58.62ZM81.3855 53.8V63H82.4255V53.8H81.3855ZM74.6855 53.8V63H75.7255V53.8H74.6855ZM84.7077 58.4C84.7077 59.32 84.9144 60.1467 85.3277 60.88C85.7411 61.6 86.3011 62.1667 87.0077 62.58C87.7277 62.9934 88.5344 63.2 89.4277 63.2C90.3211 63.2 91.1211 62.9934 91.8277 62.58C92.5477 62.1667 93.1144 61.6 93.5277 60.88C93.9411 60.1467 94.1477 59.32 94.1477 58.4C94.1477 57.4667 93.9411 56.64 93.5277 55.92C93.1144 55.2 92.5477 54.6334 91.8277 54.22C91.1211 53.8067 90.3211 53.6 89.4277 53.6C88.5344 53.6 87.7277 53.8067 87.0077 54.22C86.3011 54.6334 85.7411 55.2 85.3277 55.92C84.9144 56.64 84.7077 57.4667 84.7077 58.4ZM85.7677 58.4C85.7677 57.6534 85.9277 56.9934 86.2477 56.42C86.5677 55.8467 87.0011 55.4 87.5477 55.08C88.1077 54.7467 88.7344 54.58 89.4277 54.58C90.1211 54.58 90.7411 54.7467 91.2877 55.08C91.8477 55.4 92.2877 55.8534 92.6077 56.44C92.9277 57.0134 93.0877 57.6667 93.0877 58.4C93.0877 59.1467 92.9277 59.8067 92.6077 60.38C92.2877 60.9534 91.8477 61.4067 91.2877 61.74C90.7411 62.06 90.1211 62.22 89.4277 62.22C88.7344 62.22 88.1077 62.06 87.5477 61.74C87.0011 61.4067 86.5677 60.9534 86.2477 60.38C85.9277 59.8067 85.7677 59.1467 85.7677 58.4ZM96.2857 58.66H104.226C104.239 58.58 104.246 58.5 104.246 58.42C104.259 58.3267 104.266 58.24 104.266 58.16C104.266 57.24 104.079 56.44 103.706 55.76C103.346 55.08 102.846 54.5534 102.206 54.18C101.566 53.7934 100.846 53.6 100.046 53.6C99.3124 53.6 98.6457 53.7534 98.0457 54.06C97.4457 54.3534 96.9524 54.7734 96.5657 55.32C96.179 55.8534 95.9057 56.4734 95.7457 57.18C95.7057 57.38 95.6724 57.58 95.6457 57.78C95.6324 57.9667 95.6257 58.1667 95.6257 58.38C95.6257 59.3 95.8124 60.1267 96.1857 60.86C96.559 61.5934 97.0657 62.1667 97.7057 62.58C98.359 62.9934 99.0857 63.2 99.8857 63.2C100.699 63.2 101.366 63.0934 101.886 62.88C102.406 62.6534 102.839 62.3667 103.186 62.02C103.532 61.66 103.839 61.2734 104.106 60.86L103.266 60.32C103.066 60.6534 102.819 60.9667 102.526 61.26C102.246 61.54 101.899 61.7734 101.486 61.96C101.086 62.1334 100.592 62.22 100.006 62.22C99.3524 62.22 98.7724 62.0667 98.2657 61.76C97.7724 61.44 97.3857 60.9934 97.1057 60.42C96.8257 59.8334 96.6857 59.1534 96.6857 58.38L96.7057 58.02C96.7057 57.3 96.859 56.68 97.1657 56.16C97.4724 55.6267 97.879 55.22 98.3857 54.94C98.8924 54.66 99.4457 54.52 100.046 54.52C100.646 54.52 101.172 54.66 101.626 54.94C102.092 55.22 102.459 55.6067 102.726 56.1C102.992 56.58 103.126 57.1334 103.126 57.76H96.2857V58.66Z" fill="black"/>
<g clip-path="url(#clip0_35_87)">
<path d="M69.75 24.882L56 38.5L42.25 24.882M42.25 24.882C41.3431 23.9995 40.6287 22.9387 40.1519 21.7665C39.675 20.5943 39.4461 19.3361 39.4794 18.0711C39.5127 16.806 39.8076 15.5616 40.3455 14.4161C40.8834 13.2707 41.6526 12.249 42.6047 11.4154C43.5569 10.5819 44.6713 9.95446 45.8778 9.57274C47.0844 9.19103 48.3569 9.06327 49.6152 9.1975C50.8735 9.33173 52.0904 9.72505 53.1893 10.3527C54.2882 10.9803 55.2451 11.8287 56 12.8444C56.7582 11.8361 57.7163 10.9951 58.8144 10.3741C59.9125 9.75316 61.1269 9.36552 62.3817 9.23548C63.6365 9.10545 64.9047 9.23581 66.1068 9.61841C67.3089 10.001 68.4191 10.6276 69.3679 11.459C70.3167 12.2904 71.0836 13.3087 71.6208 14.4502C72.158 15.5916 72.4537 16.8316 72.4896 18.0927C72.5255 19.3537 72.3007 20.6085 71.8293 21.7787C71.3579 22.9488 70.65 24.009 69.75 24.893" stroke="black" stroke-width="2" stroke-linecap="round" stroke-linejoin="round"/>
</g>
<defs>
<clipPath id="clip0_35_87">
<rect width="44" height="44" fill="white" transform="translate(34 2.86102e-05)"/>
</clipPath>
</defs>
</svg>
