<svg width="111" height="71" viewBox="0 0 111 71" fill="none" xmlns="http://www.w3.org/2000/svg">
<path d="M14.2982 49H15.3982V63H14.2982V49ZM21.1982 49H22.5982L16.4382 55.56L22.8982 63H21.4982L15.0782 55.58L21.1982 49ZM25.7068 60.3C25.7068 60.7533 25.8135 61.1267 26.0268 61.42C26.2401 61.7 26.5201 61.9133 26.8668 62.06C27.2268 62.1933 27.6068 62.26 28.0068 62.26C28.5668 62.26 29.0668 62.1533 29.5068 61.94C29.9601 61.7267 30.3135 61.42 30.5668 61.02C30.8201 60.62 30.9468 60.1333 30.9468 59.56L31.1868 60.16C31.1868 60.7467 31.0335 61.2733 30.7268 61.74C30.4335 62.1933 30.0268 62.5533 29.5068 62.82C29.0001 63.0733 28.4201 63.2 27.7668 63.2C27.2201 63.2 26.7068 63.1 26.2268 62.9C25.7601 62.6867 25.3801 62.3733 25.0868 61.96C24.7935 61.5333 24.6468 60.9933 24.6468 60.34C24.6468 59.6867 24.8135 59.14 25.1468 58.7C25.4801 58.2467 25.9335 57.9067 26.5068 57.68C27.0801 57.44 27.7268 57.32 28.4468 57.32C29.0068 57.32 29.4801 57.3867 29.8668 57.52C30.2668 57.6533 30.5868 57.8067 30.8268 57.98C31.0801 58.1533 31.2601 58.3 31.3668 58.42V59.06C30.9935 58.78 30.5735 58.56 30.1068 58.4C29.6535 58.2267 29.1135 58.14 28.4868 58.14C27.9535 58.14 27.4735 58.2267 27.0468 58.4C26.6335 58.56 26.3068 58.8 26.0668 59.12C25.8268 59.44 25.7068 59.8333 25.7068 60.3ZM25.9668 55.62L25.4468 54.82C25.7935 54.54 26.2401 54.2667 26.7868 54C27.3468 53.7333 28.0201 53.6 28.8068 53.6C29.4735 53.6 30.0401 53.72 30.5068 53.96C30.9868 54.1867 31.3535 54.5133 31.6068 54.94C31.8601 55.3667 31.9868 55.88 31.9868 56.48V63H30.9468V56.48C30.9468 55.8533 30.7468 55.3733 30.3468 55.04C29.9601 54.6933 29.4468 54.52 28.8068 54.52C28.3668 54.52 27.9668 54.58 27.6068 54.7C27.2468 54.8067 26.9268 54.9467 26.6468 55.12C26.3801 55.2933 26.1535 55.46 25.9668 55.62ZM33.7738 53.8H39.1738V54.78H33.7738V53.8ZM35.9538 54.08H36.9938V63H35.9538V54.08ZM40.4263 58.66V57.76H47.2663C47.2663 57.1333 47.133 56.58 46.8663 56.1C46.5997 55.6067 46.233 55.22 45.7663 54.94C45.313 54.66 44.7863 54.52 44.1863 54.52C43.5863 54.52 43.033 54.66 42.5263 54.94C42.0197 55.22 41.613 55.6267 41.3063 56.16C40.9997 56.68 40.8463 57.3 40.8463 58.02L40.8263 58.38C40.8263 59.1533 40.9663 59.8333 41.2463 60.42C41.5263 60.9933 41.913 61.44 42.4063 61.76C42.913 62.0667 43.493 62.22 44.1463 62.22C44.733 62.22 45.2263 62.1333 45.6263 61.96C46.0397 61.7733 46.3863 61.54 46.6663 61.26C46.9597 60.9667 47.2063 60.6533 47.4063 60.32L48.2463 60.86C47.9797 61.2733 47.673 61.66 47.3263 62.02C46.9797 62.3667 46.5463 62.6533 46.0263 62.88C45.5063 63.0933 44.8397 63.2 44.0263 63.2C43.2263 63.2 42.4997 62.9933 41.8463 62.58C41.2063 62.1667 40.6997 61.5933 40.3263 60.86C39.953 60.1267 39.7663 59.3 39.7663 58.38C39.7663 58.1667 39.773 57.9667 39.7863 57.78C39.813 57.58 39.8463 57.38 39.8863 57.18C40.0463 56.4733 40.3197 55.8533 40.7063 55.32C41.093 54.7733 41.5863 54.3533 42.1863 54.06C42.7863 53.7533 43.453 53.6 44.1863 53.6C44.9863 53.6 45.7063 53.7933 46.3463 54.18C46.9863 54.5533 47.4863 55.08 47.8463 55.76C48.2197 56.44 48.4063 57.24 48.4063 58.16C48.4063 58.24 48.3997 58.3267 48.3863 58.42C48.3863 58.5 48.3797 58.58 48.3663 58.66H40.4263ZM50.8793 53.8H55.5393V54.78H51.9193V63H50.8793V53.8ZM56.1335 58.4C56.1335 57.4667 56.3402 56.64 56.7535 55.92C57.1668 55.2 57.7268 54.6333 58.4335 54.22C59.1535 53.8067 59.9602 53.6 60.8535 53.6C61.7468 53.6 62.5468 53.8067 63.2535 54.22C63.9735 54.6333 64.5402 55.2 64.9535 55.92C65.3668 56.64 65.5735 57.4667 65.5735 58.4C65.5735 59.32 65.3668 60.1467 64.9535 60.88C64.5402 61.6 63.9735 62.1667 63.2535 62.58C62.5468 62.9933 61.7468 63.2 60.8535 63.2C59.9602 63.2 59.1535 62.9933 58.4335 62.58C57.7268 62.1667 57.1668 61.6 56.7535 60.88C56.3402 60.1467 56.1335 59.32 56.1335 58.4ZM57.1935 58.4C57.1935 59.1467 57.3535 59.8067 57.6735 60.38C57.9935 60.9533 58.4268 61.4067 58.9735 61.74C59.5335 62.06 60.1602 62.22 60.8535 62.22C61.5468 62.22 62.1668 62.06 62.7135 61.74C63.2735 61.4067 63.7135 60.9533 64.0335 60.38C64.3535 59.8067 64.5135 59.1467 64.5135 58.4C64.5135 57.6667 64.3535 57.0133 64.0335 56.44C63.7135 55.8533 63.2735 55.4 62.7135 55.08C62.1668 54.7467 61.5468 54.58 60.8535 54.58C60.1602 54.58 59.5335 54.7467 58.9735 55.08C58.4268 55.4 57.9935 55.8467 57.6735 56.42C57.3535 56.9933 57.1935 57.6533 57.1935 58.4ZM68.7915 67.4H67.7515V53.8H68.7915V67.4ZM76.6515 58.4C76.6515 59.3867 76.4515 60.24 76.0515 60.96C75.6648 61.68 75.1315 62.2333 74.4515 62.62C73.7848 63.0067 73.0382 63.2 72.2115 63.2C71.4382 63.2 70.7582 62.9933 70.1715 62.58C69.5848 62.1533 69.1248 61.58 68.7915 60.86C68.4715 60.1267 68.3115 59.3067 68.3115 58.4C68.3115 57.48 68.4715 56.66 68.7915 55.94C69.1248 55.22 69.5848 54.6533 70.1715 54.24C70.7582 53.8133 71.4382 53.6 72.2115 53.6C73.0382 53.6 73.7848 53.7933 74.4515 54.18C75.1315 54.5667 75.6648 55.12 76.0515 55.84C76.4515 56.5467 76.6515 57.4 76.6515 58.4ZM75.6115 58.4C75.6115 57.6 75.4515 56.9133 75.1315 56.34C74.8115 55.7667 74.3848 55.3333 73.8515 55.04C73.3182 54.7333 72.7248 54.58 72.0715 54.58C71.5115 54.58 70.9782 54.7467 70.4715 55.08C69.9648 55.4133 69.5582 55.8667 69.2515 56.44C68.9448 57.0133 68.7915 57.6667 68.7915 58.4C68.7915 59.1333 68.9448 59.7867 69.2515 60.36C69.5582 60.9333 69.9648 61.3867 70.4715 61.72C70.9782 62.0533 71.5115 62.22 72.0715 62.22C72.7248 62.22 73.3182 62.0733 73.8515 61.78C74.3848 61.4733 74.8115 61.0333 75.1315 60.46C75.4515 59.8867 75.6115 59.2 75.6115 58.4ZM86.3177 54.7L79.2777 63.7L79.3777 62.1L86.4177 53.1L86.3177 54.7ZM80.3177 53.8V62.22L79.2777 63.7V53.8H80.3177ZM86.4177 53.1V63H85.3777V54.58L86.4177 53.1ZM96.6498 54.7L89.6098 63.7L89.7098 62.1L96.7498 53.1L96.6498 54.7ZM90.6498 53.8V62.22L89.6098 63.7V53.8H90.6498ZM96.7498 53.1V63H95.7098V54.58L96.7498 53.1Z" fill="black"/>
<g clip-path="url(#clip0_35_107)">
<path d="M45.5 11H65.6667" stroke="black" stroke-width="2" stroke-linecap="round" stroke-linejoin="round"/>
<path d="M45.5 22H65.6667" stroke="black" stroke-width="2" stroke-linecap="round" stroke-linejoin="round"/>
<path d="M45.5 33H65.6667" stroke="black" stroke-width="2" stroke-linecap="round" stroke-linejoin="round"/>
</g>
<defs>
<clipPath id="clip0_35_107">
<rect width="36" height="44" fill="white" transform="translate(37)"/>
</clipPath>
</defs>
</svg>
