<svg width="111" height="71" viewBox="0 0 111 71" fill="none" xmlns="http://www.w3.org/2000/svg">
<path d="M25.0306 49V63H26.1306V49H25.0306ZM31.9306 49L25.8106 55.58L32.2306 63H33.6306L27.1706 55.56L33.3306 49H31.9306ZM36.4392 60.3C36.4392 59.8333 36.5592 59.44 36.7992 59.12C37.0392 58.8 37.3659 58.56 37.7792 58.4C38.2059 58.2267 38.6859 58.14 39.2192 58.14C39.8459 58.14 40.3859 58.2267 40.8392 58.4C41.3059 58.56 41.7259 58.78 42.0992 59.06V58.42C41.9926 58.3 41.8126 58.1533 41.5592 57.98C41.3192 57.8067 40.9992 57.6533 40.5992 57.52C40.2126 57.3867 39.7392 57.32 39.1792 57.32C38.4592 57.32 37.8126 57.44 37.2392 57.68C36.6659 57.9067 36.2126 58.2467 35.8792 58.7C35.5459 59.14 35.3792 59.6867 35.3792 60.34C35.3792 60.9933 35.5259 61.5333 35.8192 61.96C36.1126 62.3733 36.4926 62.6867 36.9592 62.9C37.4392 63.1 37.9526 63.2 38.4992 63.2C39.1526 63.2 39.7326 63.0733 40.2392 62.82C40.7592 62.5533 41.1659 62.1933 41.4592 61.74C41.7659 61.2733 41.9192 60.7467 41.9192 60.16L41.6792 59.56C41.6792 60.1333 41.5526 60.62 41.2992 61.02C41.0459 61.42 40.6926 61.7267 40.2392 61.94C39.7992 62.1533 39.2992 62.26 38.7392 62.26C38.3392 62.26 37.9592 62.1933 37.5992 62.06C37.2526 61.9133 36.9726 61.7 36.7592 61.42C36.5459 61.1267 36.4392 60.7533 36.4392 60.3ZM36.6992 55.62C36.8859 55.46 37.1126 55.2933 37.3792 55.12C37.6592 54.9467 37.9792 54.8067 38.3392 54.7C38.6992 54.58 39.0992 54.52 39.5392 54.52C40.1792 54.52 40.6926 54.6933 41.0792 55.04C41.4792 55.3733 41.6792 55.8533 41.6792 56.48V63H42.7192V56.48C42.7192 55.88 42.5926 55.3667 42.3392 54.94C42.0859 54.5133 41.7192 54.1867 41.2392 53.96C40.7726 53.72 40.2059 53.6 39.5392 53.6C38.7526 53.6 38.0792 53.7333 37.5192 54C36.9726 54.2667 36.5259 54.54 36.1792 54.82L36.6992 55.62ZM44.5063 53.8V54.78H49.9063V53.8H44.5063ZM46.6863 54.08V63H47.7263V54.08H46.6863ZM51.7517 60.3C51.7517 59.8333 51.8717 59.44 52.1117 59.12C52.3517 58.8 52.6784 58.56 53.0917 58.4C53.5184 58.2267 53.9984 58.14 54.5317 58.14C55.1584 58.14 55.6984 58.2267 56.1517 58.4C56.6184 58.56 57.0384 58.78 57.4117 59.06V58.42C57.3051 58.3 57.1251 58.1533 56.8717 57.98C56.6317 57.8067 56.3117 57.6533 55.9117 57.52C55.5251 57.3867 55.0517 57.32 54.4917 57.32C53.7717 57.32 53.1251 57.44 52.5517 57.68C51.9784 57.9067 51.5251 58.2467 51.1917 58.7C50.8584 59.14 50.6917 59.6867 50.6917 60.34C50.6917 60.9933 50.8384 61.5333 51.1317 61.96C51.4251 62.3733 51.8051 62.6867 52.2717 62.9C52.7517 63.1 53.2651 63.2 53.8117 63.2C54.4651 63.2 55.0451 63.0733 55.5517 62.82C56.0717 62.5533 56.4784 62.1933 56.7717 61.74C57.0784 61.2733 57.2317 60.7467 57.2317 60.16L56.9917 59.56C56.9917 60.1333 56.8651 60.62 56.6117 61.02C56.3584 61.42 56.0051 61.7267 55.5517 61.94C55.1117 62.1533 54.6117 62.26 54.0517 62.26C53.6517 62.26 53.2717 62.1933 52.9117 62.06C52.5651 61.9133 52.2851 61.7 52.0717 61.42C51.8584 61.1267 51.7517 60.7533 51.7517 60.3ZM52.0117 55.62C52.1984 55.46 52.4251 55.2933 52.6917 55.12C52.9717 54.9467 53.2917 54.8067 53.6517 54.7C54.0117 54.58 54.4117 54.52 54.8517 54.52C55.4917 54.52 56.0051 54.6933 56.3917 55.04C56.7917 55.3733 56.9917 55.8533 56.9917 56.48V63H58.0317V56.48C58.0317 55.88 57.9051 55.3667 57.6517 54.94C57.3984 54.5133 57.0317 54.1867 56.5517 53.96C56.0851 53.72 55.5184 53.6 54.8517 53.6C54.0651 53.6 53.3917 53.7333 52.8317 54C52.2851 54.2667 51.8384 54.54 51.4917 54.82L52.0117 55.62ZM68.7188 53.8H61.3788V59.8C61.3788 60.5733 61.2321 61.14 60.9388 61.5C60.6588 61.86 60.3188 62.04 59.9188 62.04V63C60.4521 63 60.9054 62.8867 61.2788 62.66C61.6521 62.42 61.9321 62.0667 62.1188 61.6C62.3188 61.12 62.4188 60.52 62.4188 59.8V54.78H67.6788V63H68.7188V53.8ZM71.1042 58.4C71.1042 59.32 71.3109 60.1467 71.7242 60.88C72.1376 61.6 72.6976 62.1667 73.4042 62.58C74.1242 62.9933 74.9309 63.2 75.8242 63.2C76.7176 63.2 77.5176 62.9933 78.2242 62.58C78.9442 62.1667 79.5109 61.6 79.9242 60.88C80.3376 60.1467 80.5442 59.32 80.5442 58.4C80.5442 57.4667 80.3376 56.64 79.9242 55.92C79.5109 55.2 78.9442 54.6333 78.2242 54.22C77.5176 53.8067 76.7176 53.6 75.8242 53.6C74.9309 53.6 74.1242 53.8067 73.4042 54.22C72.6976 54.6333 72.1376 55.2 71.7242 55.92C71.3109 56.64 71.1042 57.4667 71.1042 58.4ZM72.1642 58.4C72.1642 57.6533 72.3242 56.9933 72.6442 56.42C72.9642 55.8467 73.3976 55.4 73.9442 55.08C74.5042 54.7467 75.1309 54.58 75.8242 54.58C76.5176 54.58 77.1376 54.7467 77.6842 55.08C78.2442 55.4 78.6842 55.8533 79.0042 56.44C79.3242 57.0133 79.4842 57.6667 79.4842 58.4C79.4842 59.1467 79.3242 59.8067 79.0042 60.38C78.6842 60.9533 78.2442 61.4067 77.6842 61.74C77.1376 62.06 76.5176 62.22 75.8242 62.22C75.1309 62.22 74.5042 62.06 73.9442 61.74C73.3976 61.4067 72.9642 60.9533 72.6442 60.38C72.3242 59.8067 72.1642 59.1467 72.1642 58.4ZM82.8422 53.8V63H83.8822V54.78H87.5022V53.8H82.8422Z" fill="black"/>
<g clip-path="url(#clip0_35_107)">
<path d="M45.5 11H65.6667" stroke="black" stroke-width="2" stroke-linecap="round" stroke-linejoin="round"/>
<path d="M45.5 22H65.6667" stroke="black" stroke-width="2" stroke-linecap="round" stroke-linejoin="round"/>
<path d="M45.5 33H65.6667" stroke="black" stroke-width="2" stroke-linecap="round" stroke-linejoin="round"/>
</g>
<defs>
<clipPath id="clip0_35_107">
<rect width="36" height="44" fill="white" transform="translate(37)"/>
</clipPath>
</defs>
</svg>
