<svg width="111" height="68" viewBox="0 0 111 68" fill="none" xmlns="http://www.w3.org/2000/svg">
<path d="M20.5091 49V63H21.6091V49H20.5091ZM27.4091 49L21.2891 55.58L27.7091 63H29.1091L22.6491 55.56L28.8091 49H27.4091ZM30.3523 58.4C30.3523 59.32 30.5589 60.1467 30.9723 60.88C31.3856 61.6 31.9456 62.1667 32.6523 62.58C33.3723 62.9933 34.1789 63.2 35.0723 63.2C35.9656 63.2 36.7656 62.9933 37.4723 62.58C38.1923 62.1667 38.7589 61.6 39.1723 60.88C39.5856 60.1467 39.7923 59.32 39.7923 58.4C39.7923 57.4667 39.5856 56.64 39.1723 55.92C38.7589 55.2 38.1923 54.6333 37.4723 54.22C36.7656 53.8067 35.9656 53.6 35.0723 53.6C34.1789 53.6 33.3723 53.8067 32.6523 54.22C31.9456 54.6333 31.3856 55.2 30.9723 55.92C30.5589 56.64 30.3523 57.4667 30.3523 58.4ZM31.4123 58.4C31.4123 57.6533 31.5723 56.9933 31.8923 56.42C32.2123 55.8467 32.6456 55.4 33.1923 55.08C33.7523 54.7467 34.3789 54.58 35.0723 54.58C35.7656 54.58 36.3856 54.7467 36.9323 55.08C37.4923 55.4 37.9323 55.8533 38.2523 56.44C38.5723 57.0133 38.7323 57.6667 38.7323 58.4C38.7323 59.1467 38.5723 59.8067 38.2523 60.38C37.9323 60.9533 37.4923 61.4067 36.9323 61.74C36.3856 62.06 35.7656 62.22 35.0723 62.22C34.3789 62.22 33.7523 62.06 33.1923 61.74C32.6456 61.4067 32.2123 60.9533 31.8923 60.38C31.5723 59.8067 31.4123 59.1467 31.4123 58.4ZM43.0102 67.4V53.8H41.9702V67.4H43.0102ZM50.8702 58.4C50.8702 57.4 50.6702 56.5467 50.2702 55.84C49.8836 55.12 49.3502 54.5667 48.6702 54.18C48.0036 53.7933 47.2569 53.6 46.4302 53.6C45.6569 53.6 44.9769 53.8133 44.3902 54.24C43.8036 54.6533 43.3436 55.22 43.0102 55.94C42.6902 56.66 42.5302 57.48 42.5302 58.4C42.5302 59.3067 42.6902 60.1267 43.0102 60.86C43.3436 61.58 43.8036 62.1533 44.3902 62.58C44.9769 62.9933 45.6569 63.2 46.4302 63.2C47.2569 63.2 48.0036 63.0067 48.6702 62.62C49.3502 62.2333 49.8836 61.68 50.2702 60.96C50.6702 60.24 50.8702 59.3867 50.8702 58.4ZM49.8302 58.4C49.8302 59.2 49.6702 59.8867 49.3502 60.46C49.0302 61.0333 48.6036 61.4733 48.0702 61.78C47.5369 62.0733 46.9436 62.22 46.2902 62.22C45.7302 62.22 45.1969 62.0533 44.6902 61.72C44.1836 61.3867 43.7769 60.9333 43.4702 60.36C43.1636 59.7867 43.0102 59.1333 43.0102 58.4C43.0102 57.6667 43.1636 57.0133 43.4702 56.44C43.7769 55.8667 44.1836 55.4133 44.6902 55.08C45.1969 54.7467 45.7302 54.58 46.2902 54.58C46.9436 54.58 47.5369 54.7333 48.0702 55.04C48.6036 55.3333 49.0302 55.7667 49.3502 56.34C49.6702 56.9133 49.8302 57.6 49.8302 58.4ZM56.7765 58.3C57.8298 58.3 58.6365 58.0867 59.1965 57.66C59.7698 57.2333 60.0565 56.6867 60.0565 56.02C60.0565 55.5533 59.9165 55.14 59.6365 54.78C59.3698 54.42 59.0032 54.1333 58.5365 53.92C58.0698 53.7067 57.5432 53.6 56.9565 53.6C56.3298 53.6 55.7565 53.7267 55.2365 53.98C54.7298 54.2333 54.3232 54.5733 54.0165 55C53.7232 55.4267 53.5765 55.8933 53.5765 56.4H54.6365C54.6365 56.1067 54.7232 55.82 54.8965 55.54C55.0832 55.2467 55.3498 55.0067 55.6965 54.82C56.0432 54.6333 56.4565 54.54 56.9365 54.54C57.5498 54.54 58.0432 54.68 58.4165 54.96C58.8032 55.24 58.9965 55.62 58.9965 56.1C58.9965 56.5533 58.8098 56.9267 58.4365 57.22C58.0632 57.5 57.5098 57.64 56.7765 57.64V58.3ZM56.8965 63.2C57.5232 63.2 58.1098 63.0933 58.6565 62.88C59.2032 62.6533 59.6365 62.3267 59.9565 61.9C60.2898 61.4733 60.4565 60.96 60.4565 60.36C60.4565 59.5333 60.1298 58.92 59.4765 58.52C58.8365 58.1067 57.9365 57.9 56.7765 57.9V58.56C57.2965 58.56 57.7565 58.6267 58.1565 58.76C58.5565 58.8933 58.8698 59.0933 59.0965 59.36C59.3232 59.6267 59.4365 59.9667 59.4365 60.38C59.4365 60.7933 59.3165 61.14 59.0765 61.42C58.8498 61.7 58.5432 61.9133 58.1565 62.06C57.7832 62.2067 57.3632 62.28 56.8965 62.28C56.0565 62.28 55.4165 62.0667 54.9765 61.64C54.5365 61.2 54.2698 60.6867 54.1765 60.1H53.1165C53.2232 60.9933 53.6098 61.7333 54.2765 62.32C54.9432 62.9067 55.8165 63.2 56.8965 63.2ZM69.9896 54.7L70.0896 53.1L63.0496 62.1L62.9496 63.7L69.9896 54.7ZM63.9896 53.8H62.9496V63.7L63.9896 62.22V53.8ZM70.0896 53.1L69.0496 54.58V63H70.0896V53.1ZM73.8016 58.62H80.5216V57.64H73.8016V58.62ZM79.8816 53.8V63H80.9216V53.8H79.8816ZM73.1816 53.8V63H74.2216V53.8H73.1816ZM84.1638 60.3C84.1638 59.8333 84.2838 59.44 84.5238 59.12C84.7638 58.8 85.0905 58.56 85.5038 58.4C85.9305 58.2267 86.4105 58.14 86.9438 58.14C87.5705 58.14 88.1105 58.2267 88.5638 58.4C89.0305 58.56 89.4505 58.78 89.8238 59.06V58.42C89.7172 58.3 89.5372 58.1533 89.2838 57.98C89.0438 57.8067 88.7238 57.6533 88.3238 57.52C87.9372 57.3867 87.4638 57.32 86.9038 57.32C86.1838 57.32 85.5372 57.44 84.9638 57.68C84.3905 57.9067 83.9372 58.2467 83.6038 58.7C83.2705 59.14 83.1038 59.6867 83.1038 60.34C83.1038 60.9933 83.2505 61.5333 83.5438 61.96C83.8372 62.3733 84.2172 62.6867 84.6838 62.9C85.1638 63.1 85.6772 63.2 86.2238 63.2C86.8772 63.2 87.4572 63.0733 87.9638 62.82C88.4838 62.5533 88.8905 62.1933 89.1838 61.74C89.4905 61.2733 89.6438 60.7467 89.6438 60.16L89.4038 59.56C89.4038 60.1333 89.2772 60.62 89.0238 61.02C88.7705 61.42 88.4172 61.7267 87.9638 61.94C87.5238 62.1533 87.0238 62.26 86.4638 62.26C86.0638 62.26 85.6838 62.1933 85.3238 62.06C84.9772 61.9133 84.6972 61.7 84.4838 61.42C84.2705 61.1267 84.1638 60.7533 84.1638 60.3ZM84.4238 55.62C84.6105 55.46 84.8372 55.2933 85.1038 55.12C85.3838 54.9467 85.7038 54.8067 86.0638 54.7C86.4238 54.58 86.8238 54.52 87.2638 54.52C87.9038 54.52 88.4172 54.6933 88.8038 55.04C89.2038 55.3733 89.4038 55.8533 89.4038 56.48V63H90.4438V56.48C90.4438 55.88 90.3172 55.3667 90.0638 54.94C89.8105 54.5133 89.4438 54.1867 88.9638 53.96C88.4972 53.72 87.9305 53.6 87.2638 53.6C86.4772 53.6 85.8038 53.7333 85.2438 54C84.6972 54.2667 84.2505 54.54 83.9038 54.82L84.4238 55.62Z" fill="black"/>
<g clip-path="url(#clip0_35_92)">
<path d="M45 38.5C47.025 38.5 48.6666 36.8584 48.6666 34.8333C48.6666 32.8083 47.025 31.1667 45 31.1667C42.9749 31.1667 41.3333 32.8083 41.3333 34.8333C41.3333 36.8584 42.9749 38.5 45 38.5Z" stroke="black" stroke-width="2" stroke-linecap="round" stroke-linejoin="round"/>
<path d="M65.1667 38.5C67.1917 38.5 68.8333 36.8584 68.8333 34.8333C68.8333 32.8083 67.1917 31.1667 65.1667 31.1667C63.1416 31.1667 61.5 32.8083 61.5 34.8333C61.5 36.8584 63.1416 38.5 65.1667 38.5Z" stroke="black" stroke-width="2" stroke-linecap="round" stroke-linejoin="round"/>
<path d="M65.1666 31.1667H45V5.5H41.3333" stroke="black" stroke-width="2" stroke-linecap="round" stroke-linejoin="round"/>
<path d="M45 9.16667L70.6667 11L68.8333 23.8333H45" stroke="black" stroke-width="2" stroke-linecap="round" stroke-linejoin="round"/>
</g>
<defs>
<clipPath id="clip0_35_92">
<rect width="44" height="44" fill="white" transform="translate(34)"/>
</clipPath>
</defs>
</svg>
