<svg width="244" height="65" viewBox="0 0 244 65" fill="none" xmlns="http://www.w3.org/2000/svg">
<g clip-path="url(#clip0_35_69)">
<path d="M0 16.4607V64.4515H22.3308V63.0118H1.50239V16.4607H0Z" fill="black"/>
<path d="M34.6231 46.4893H58.3197L57.9783 45.0496H34.8963L34.6231 46.4893ZM46.4373 18.8603L57.2271 45.6666L57.3637 46.0779L64.6024 64.4515H66.3097L46.4373 15.2267L26.4966 64.4515H28.2039L35.5792 46.0094L35.7158 45.598L46.4373 18.8603Z" fill="black"/>
<path d="M93.6938 42.4443H112.269C112.132 45.2781 111.563 47.9747 110.561 50.5342C109.56 53.048 108.171 55.2876 106.396 57.2529C104.62 59.1726 102.503 60.7037 100.045 61.8463C97.5864 62.9433 94.8548 63.4917 91.85 63.4917C87.616 63.4917 83.8601 62.509 80.5822 60.5437C77.3042 58.5327 74.732 55.7903 72.8654 52.3167C70.9988 48.8431 70.0655 44.8896 70.0655 40.4561C70.0655 35.9313 70.9988 31.9549 72.8654 28.527C74.7775 25.0534 77.3725 22.3339 80.6504 20.3686C83.9283 18.4032 87.6615 17.4205 91.85 17.4205C95.9474 17.4205 99.544 18.3575 102.64 20.2314C105.736 22.1054 108.103 24.4364 109.742 27.2244L110.971 26.2646C109.605 24.2078 107.989 22.4253 106.123 20.917C104.302 19.363 102.207 18.1518 99.8399 17.2834C97.4725 16.3693 94.8092 15.9123 91.85 15.9123C88.481 15.9123 85.3624 16.5293 82.4943 17.7633C79.6716 18.9517 77.2132 20.6428 75.119 22.8366C73.0247 25.0305 71.3858 27.6357 70.2021 30.6523C69.0184 33.6232 68.4265 36.8911 68.4265 40.4561C68.4265 44.0212 69.0184 47.312 70.2021 50.3285C71.3858 53.2994 73.0247 55.8818 75.119 58.0756C77.2132 60.2695 79.6716 61.9835 82.4943 63.2175C85.3624 64.4058 88.481 65 91.85 65C95.219 65 98.2465 64.3601 100.933 63.0804C103.664 61.8006 105.986 60.0409 107.898 57.8014C109.81 55.5161 111.267 52.9337 112.269 50.0543C113.316 47.1748 113.839 44.1583 113.839 41.0046H93.6938V42.4443Z" fill="black"/>
<path d="M131.185 42.4443L146.414 64.4515H148.326L132.892 42.4443H131.185ZM123.537 16.4607V64.4515H125.107V16.4607H123.537ZM124.151 17.9005H132.209C135.078 17.9005 137.604 18.3575 139.79 19.2716C141.975 20.14 143.682 21.4655 144.911 23.248C146.186 24.9848 146.823 27.2015 146.823 29.8982C146.823 32.5491 146.209 34.7658 144.98 36.5483C143.75 38.3308 142.02 39.6792 139.79 40.5933C137.604 41.4617 135.078 41.8959 132.209 41.8959H124.151V43.267H132.209C135.305 43.267 138.06 42.7643 140.472 41.7587C142.885 40.7532 144.797 39.2678 146.209 37.3025C147.62 35.2914 148.326 32.8233 148.326 29.8982C148.326 26.9273 147.62 24.4592 146.209 22.4939C144.797 20.4828 142.885 18.9745 140.472 17.969C138.06 16.9635 135.305 16.4607 132.209 16.4607H124.151V17.9005Z" fill="black"/>
<path d="M159.321 46.4893H183.154L182.812 45.0495H159.662L159.321 46.4893ZM171.271 18.8603L182.061 45.6666L182.198 46.0779L189.436 64.4515H191.144L171.271 15.2267L151.331 64.4515H153.038L160.413 46.0094L160.55 45.598L171.271 18.8603ZM171.271 2.6805L181.242 11.5245L182.198 10.7018L171.271 1.10367L160.345 10.7018L161.233 11.5245L171.271 2.6805Z" fill="black"/>
<path d="M194.968 40.4561C194.968 35.9313 195.878 31.9549 197.699 28.527C199.52 25.0534 202.002 22.3567 205.143 20.4371C208.33 18.4718 211.972 17.4891 216.069 17.4891C218.209 17.4891 220.19 17.7176 222.011 18.1747C223.877 18.586 225.584 19.2488 227.132 20.1629C228.726 21.0313 230.16 22.1054 231.435 23.3851V21.3284C229.431 19.5459 227.246 18.1975 224.879 17.2834C222.511 16.3693 219.575 15.9123 216.069 15.9123C212.746 15.9123 209.696 16.5293 206.919 17.7633C204.141 18.9517 201.729 20.6428 199.68 22.8366C197.631 25.0305 196.038 27.6357 194.9 30.6523C193.807 33.6232 193.261 36.8911 193.261 40.4561C193.261 44.0212 193.807 47.312 194.9 50.3285C196.038 53.2994 197.631 55.8818 199.68 58.0756C201.729 60.2695 204.141 61.9835 206.919 63.2175C209.696 64.4058 212.746 65 216.069 65C219.575 65 222.511 64.5429 224.879 63.6288C227.246 62.7147 229.431 61.3664 231.435 59.5839V57.4586C230.114 58.7383 228.703 59.8353 227.201 60.7494C225.698 61.6635 224.037 62.3491 222.216 62.8061C220.394 63.2175 218.346 63.4232 216.069 63.4232C211.972 63.4232 208.33 62.4405 205.143 60.4752C201.956 58.4641 199.452 55.7446 197.631 52.3167C195.856 48.8431 194.968 44.8896 194.968 40.4561Z" fill="black"/>
<path d="M242.498 16.4607V64.4515H244V16.4607H242.498Z" fill="black"/>
<path d="M81.3495 3.98818L100.776 3.91259M83.4237 0.410218L87.1473 3.96546L91.2434 0.515557L95.715 3.91259L98.7367 0.403266M91.2121 15.3835L81.3623 3.95853L83.4189 0.405284H98.7347L100.9 3.90468L91.2121 15.3835ZM91.2132 14.8688L87.1473 3.96928L95.7122 3.91259L91.2132 14.8688Z" stroke="black" stroke-width="0.744545"/>
</g>
<defs>
<clipPath id="clip0_35_69">
<rect width="244" height="65" fill="white"/>
</clipPath>
</defs>
</svg>
