<svg width="112" height="71" viewBox="0 0 112 71" fill="none" xmlns="http://www.w3.org/2000/svg">
<path d="M40.3496 50.04V63H41.4496V49H30.9496V63H32.0496V50.04H40.3496ZM43.821 58.4C43.821 59.32 44.0277 60.1467 44.441 60.88C44.8543 61.6 45.4143 62.1667 46.121 62.58C46.841 62.9933 47.6477 63.2 48.541 63.2C49.4343 63.2 50.2343 62.9933 50.941 62.58C51.661 62.1667 52.2277 61.6 52.641 60.88C53.0543 60.1467 53.261 59.32 53.261 58.4C53.261 57.4667 53.0543 56.64 52.641 55.92C52.2277 55.2 51.661 54.6333 50.941 54.22C50.2343 53.8067 49.4343 53.6 48.541 53.6C47.6477 53.6 46.841 53.8067 46.121 54.22C45.4143 54.6333 44.8543 55.2 44.441 55.92C44.0277 56.64 43.821 57.4667 43.821 58.4ZM44.881 58.4C44.881 57.6533 45.041 56.9933 45.361 56.42C45.681 55.8467 46.1143 55.4 46.661 55.08C47.221 54.7467 47.8477 54.58 48.541 54.58C49.2343 54.58 49.8543 54.7467 50.401 55.08C50.961 55.4 51.401 55.8533 51.721 56.44C52.041 57.0133 52.201 57.6667 52.201 58.4C52.201 59.1467 52.041 59.8067 51.721 60.38C51.401 60.9533 50.961 61.4067 50.401 61.74C49.8543 62.06 49.2343 62.22 48.541 62.22C47.8477 62.22 47.221 62.06 46.661 61.74C46.1143 61.4067 45.681 60.9533 45.361 60.38C45.041 59.8067 44.881 59.1467 44.881 58.4ZM62.599 54.7L62.699 53.1L55.659 62.1L55.559 63.7L62.599 54.7ZM56.599 53.8H55.559V63.7L56.599 62.22V53.8ZM62.699 53.1L61.659 54.58V63H62.699V53.1ZM66.031 58.4C66.031 57.6533 66.191 56.9933 66.511 56.42C66.831 55.8467 67.2643 55.4 67.811 55.08C68.371 54.7467 68.9977 54.58 69.691 54.58C70.1843 54.58 70.6443 54.6533 71.071 54.8C71.4977 54.9467 71.8643 55.1333 72.171 55.36C72.491 55.5867 72.7177 55.8267 72.851 56.08V54.78C72.571 54.46 72.1377 54.1867 71.551 53.96C70.9777 53.72 70.3577 53.6 69.691 53.6C68.7977 53.6 67.9977 53.8067 67.291 54.22C66.5843 54.6333 66.0177 55.2 65.591 55.92C65.1777 56.64 64.971 57.4667 64.971 58.4C64.971 59.32 65.1777 60.1467 65.591 60.88C66.0177 61.6 66.5843 62.1667 67.291 62.58C67.9977 62.9933 68.7977 63.2 69.691 63.2C70.3577 63.2 70.9777 63.0867 71.551 62.86C72.1377 62.6333 72.571 62.3533 72.851 62.02V60.72C72.7177 60.96 72.491 61.2 72.171 61.44C71.8643 61.6667 71.4977 61.8533 71.071 62C70.6443 62.1467 70.1843 62.22 69.691 62.22C68.9977 62.22 68.371 62.06 67.811 61.74C67.2643 61.4067 66.831 60.9533 66.511 60.38C66.191 59.8067 66.031 59.1467 66.031 58.4ZM75.3218 53.8V63H76.3618V53.8H75.3218ZM80.3018 53.8L75.9818 57.6L80.7018 63H82.0218L77.3018 57.6L81.6418 53.8H80.3018Z" fill="black"/>
<g clip-path="url(#clip0_43_174)">
<path d="M52.3333 31.1667C59.421 31.1667 65.1667 25.421 65.1667 18.3333C65.1667 11.2457 59.421 5.5 52.3333 5.5C45.2457 5.5 39.5 11.2457 39.5 18.3333C39.5 25.421 45.2457 31.1667 52.3333 31.1667Z" stroke="black" stroke-width="2" stroke-linecap="round" stroke-linejoin="round"/>
<path d="M72.5 38.5L61.5 27.5" stroke="black" stroke-width="2" stroke-linecap="round" stroke-linejoin="round"/>
</g>
<defs>
<clipPath id="clip0_43_174">
<rect width="44" height="44" fill="white" transform="translate(34)"/>
</clipPath>
</defs>
</svg>
